<svg xmlns="http://www.w3.org/2000/svg" fill="none" viewBox="0 0 88 20"><path fill="#442b75" d="M17.773 0H0v6.28h17.773V0ZM0 12.17a13.22 13.22 0 0 1 17.773 0v7.827L17.77 20l-8.883-9.016L.003 20 0 19.997V12.17ZM38.636 13.948h-.382c-.36 0-.634-.063-.825-.212-.19-.149-.296-.447-.296-.915V9.015c0-1.319-.403-2.382-1.186-3.212-.783-.829-2.074-1.233-3.852-1.233-1.609 0-2.858.361-3.726 1.063-.867.723-1.396 1.702-1.545 2.956h2.816c.19-1.254.994-1.871 2.37-1.871.826 0 1.419.213 1.736.638.317.425.487 1.02.487 1.786v.32h-2.286c-1.8 0-3.175.318-4.107.978-.931.659-1.397 1.552-1.397 2.68 0 1.148.424 1.998 1.27 2.551.847.574 1.842.85 3.006.85 1.8 0 3.133-.637 3.958-1.935.19.617.508 1.064.953 1.298.444.255 1.1.383 2.01.383h.996v-2.319Zm-7.26.426c-.636 0-1.123-.149-1.461-.426a1.294 1.294 0 0 1-.53-1.084c0-1.042.974-1.574 2.943-1.574h1.947c0 1.064-.275 1.85-.846 2.34-.572.489-1.25.744-2.054.744ZM40.454.87v2.743h2.9V.87h-2.9Zm0 3.955v11.441h2.9V4.827h-2.9ZM45.824.87v15.397h2.9V12.97l1.482-1.531 3.28 4.828h3.43l-4.742-6.933 4.318-4.509h-3.577L48.724 9.25V.869h-2.9ZM58.293.87v2.743h2.9V.87h-2.9Zm0 3.955v11.441h2.9V4.827h-2.9ZM74.751.87h-2.9v5.635c-.783-1.297-1.99-1.935-3.577-1.935-1.502 0-2.73.532-3.64 1.616-.91 1.085-1.376 2.552-1.376 4.36 0 1.808.465 3.254 1.376 4.338.91 1.085 2.138 1.638 3.64 1.638 1.588 0 2.794-.638 3.578-1.935v1.68h2.9V.87Zm-5.694 13.334c-.952 0-1.65-.34-2.137-1.042-.487-.68-.72-1.553-.72-2.616 0-1.063.233-1.935.72-2.637.486-.702 1.185-1.042 2.138-1.042.93 0 1.65.34 2.18 1 .508.68.762 1.573.762 2.679 0 1.106-.254 1.999-.762 2.658-.53.66-1.25 1-2.18 1ZM82.264 16.522c1.778 0 3.175-.532 4.212-1.616C87.492 13.82 88 12.374 88 10.546c0-1.83-.508-3.275-1.524-4.36-1.037-1.084-2.434-1.616-4.212-1.616-1.8 0-3.197.532-4.212 1.616-1.017 1.085-1.525 2.53-1.525 4.36 0 1.829.508 3.275 1.525 4.36 1.015 1.084 2.412 1.616 4.212 1.616Zm0-2.318c-.91 0-1.588-.32-2.075-.957-.486-.617-.72-1.531-.72-2.701 0-1.17.234-2.084.72-2.722.487-.638 1.165-.957 2.075-.957.91 0 1.587.319 2.074.957.487.638.72 1.552.72 2.722s-.233 2.084-.72 2.7c-.487.639-1.164.958-2.074.958Z"/></svg>
