<svg xmlns="http://www.w3.org/2000/svg" fill="none" viewBox="0 0 1500 400"><path fill="#442b75" fill-rule="evenodd" d="M574.569 264.922c7.525 0 13.582-1.526 18.157-4.577 4.578-3.052 8.137-6.866 10.683-11.444 2.541-4.578 4.22-9.509 5.035-14.803.811-5.287 1.221-10.171 1.221-14.648 0-4.472-.41-9.356-1.221-14.649-.815-5.287-2.494-10.223-5.035-14.801-2.546-4.578-6.105-8.392-10.683-11.443-4.575-3.054-10.632-4.578-18.157-4.578-7.529 0-13.58 1.524-18.158 4.578-4.578 3.051-8.088 6.865-10.528 11.443-2.442 4.578-4.073 9.514-4.884 14.801-.815 5.293-1.221 10.177-1.221 14.649 0 4.477.406 9.361 1.221 14.648.811 5.294 2.442 10.225 4.884 14.803 2.44 4.578 5.95 8.392 10.528 11.444 4.578 3.051 10.629 4.577 18.158 4.577Zm35.096-105.023V90.664h36.317v128.482c0 10.58-1.021 19.836-3.053 27.771-2.036 7.935-4.73 14.8-8.087 20.599-3.357 5.799-7.171 10.582-11.443 14.345-4.272 3.767-8.651 6.866-13.124 9.308-10.581 5.493-22.482 8.34-35.706 8.544-13.634-.204-25.741-3.051-36.317-8.544-4.476-2.442-8.902-5.541-13.274-9.308-4.378-3.763-8.241-8.494-11.598-14.191-3.357-5.695-6.056-12.513-8.089-20.448-2.034-7.934-3.051-17.19-3.051-27.772 0-10.577.963-19.837 2.9-27.771 1.932-7.935 4.472-14.801 7.629-20.6 3.153-5.798 6.714-10.628 10.682-14.497 3.966-3.862 8.087-7.019 12.359-9.459 9.767-5.695 20.953-8.746 33.572-9.156a63.687 63.687 0 0 1 18.309 4.578c5.083 2.24 10.273 5.645 15.566 10.223 3.525 3.052 5.661 5.429 6.408 7.131Zm161.442 39.715a78.506 78.506 0 0 0-3.814-9.765c-1.527-3.253-3.615-6.205-6.257-8.85-2.647-2.644-5.799-4.732-9.461-6.257-3.663-1.526-7.935-2.289-12.817-2.289-4.883 0-9.155.763-12.818 2.289-3.663 1.525-6.82 3.613-9.461 6.257-2.646 2.645-4.782 5.597-6.409 8.85-1.63 3.257-2.851 6.512-3.662 9.765h64.699Zm38.453 0c.406 3.051.764 6.208 1.067 9.461.306 3.257.458 6.714.458 10.375v5.493H704.272c.405 3.463.915 6.972 1.526 10.531a49.561 49.561 0 0 0 3.051 10.528c2.236 5.293 5.695 9.971 10.377 14.037 4.678 4.073 11.186 6.105 19.532 6.105 8.339 0 14.849-2.032 19.531-6.105 4.677-4.066 8.134-8.744 10.376-14.037h39.674c-1.63 7.124-3.92 13.328-6.865 18.615-2.954 5.293-6.211 9.871-9.768 13.734-3.56 3.868-7.377 7.071-11.443 9.613-4.073 2.546-8.041 4.63-11.903 6.256-9.36 3.663-19.227 5.493-29.602 5.493-13.633-.203-25.74-3.051-36.317-8.544-4.478-2.442-8.904-5.541-13.276-9.307-4.378-3.763-8.24-8.495-11.597-14.192-3.357-5.694-6.055-12.512-8.087-20.447-2.036-7.935-3.051-17.191-3.051-27.773 0-10.576 1.015-19.836 3.051-27.771 2.032-7.935 4.73-14.8 8.087-20.599 3.357-5.799 7.219-10.629 11.597-14.497 4.372-3.863 8.798-7.02 13.276-9.46 10.577-5.694 22.684-8.746 36.317-9.155 11.186.409 21.667 2.745 31.434 7.017 4.066 1.833 8.186 4.227 12.359 7.174 4.168 2.951 8.034 6.612 11.597 10.986 3.557 4.378 6.714 9.565 9.462 15.564 2.745 6.004 4.729 12.97 5.95 20.905Zm67.439 97.047h50.051l50.354-154.728h-37.538l-37.842 115.666-37.841-115.666h-37.538l50.354 154.728Zm154.111-118.41v68.056c.61 2.44 1.73 4.682 3.36 6.714 1.42 1.631 3.41 3.157 5.95 4.578 2.54 1.425 5.85 2.136 9.92 2.136h23.19v36.927h-37.23c-7.93-.812-15.06-3.052-21.36-6.714-5.3-3.052-10.13-7.577-14.5-13.58-4.375-6.001-6.559-14.293-6.559-24.874V120.937h37.229v20.997h35.1v36.317h-35.1Zm66.53-16.022c-4.47 6.003-6.71 14.295-6.71 24.872v109.561h37.54V192.288c.61-2.44 1.72-4.678 3.35-6.714 1.43-1.624 3.41-3.151 5.96-4.578 2.54-1.42 5.84-2.136 9.91-2.136h28.69v-36.926h-42.72c-7.94.815-15.06 3.051-21.37 6.713-5.29 3.052-10.17 7.582-14.65 13.582Zm167.24 11.749c-7.53 0-13.58 1.526-18.16 4.578-4.58 3.051-8.09 6.866-10.53 11.443-2.44 4.578-4.07 9.514-4.88 14.803-.81 5.293-1.22 10.175-1.22 14.649 0 4.478.41 9.359 1.22 14.648.81 5.294 2.44 10.223 4.88 14.801 2.44 4.578 5.95 8.392 10.53 11.444 4.58 3.053 10.63 4.578 18.16 4.578 7.53 0 13.58-1.525 18.16-4.578 4.58-3.052 8.09-6.866 10.53-11.444 2.44-4.578 4.06-9.507 4.88-14.801.81-5.289 1.22-10.17 1.22-14.648 0-4.474-.41-9.356-1.22-14.649-.82-5.289-2.44-10.225-4.88-14.803-2.44-4.577-5.95-8.392-10.53-11.443-4.58-3.052-10.63-4.578-18.16-4.578Zm-72.33 45.473c0-10.577 1.02-19.838 3.05-27.773 2.03-7.935 4.73-14.801 8.09-20.6 3.36-5.798 7.22-10.628 11.6-14.496 4.37-3.863 8.79-7.018 13.27-9.46 10.58-5.695 22.69-8.746 36.32-9.156 13.43.41 25.43 3.461 36.01 9.156 4.47 2.442 8.9 5.597 13.28 9.46 4.37 3.868 8.24 8.698 11.59 14.496 3.36 5.799 6.11 12.665 8.24 20.6 2.14 7.935 3.21 17.196 3.21 27.773 0 10.58-1.07 19.836-3.21 27.771-2.13 7.934-4.88 14.754-8.24 20.447-3.35 5.699-7.22 10.429-11.59 14.191-4.38 3.767-8.81 6.866-13.28 9.308-10.58 5.493-22.58 8.34-36.01 8.544-13.63-.204-25.74-3.051-36.32-8.544-4.48-2.442-8.9-5.541-13.27-9.308-4.38-3.762-8.24-8.492-11.6-14.191-3.36-5.693-6.06-12.513-8.09-20.447-2.03-7.935-3.05-17.191-3.05-27.771Zm237.59-81.179c-3.77-.202-5.96-.306-6.57-.306-.81 0-3.05.104-6.71.306-3.66.204-8.04 1.067-13.12 2.594-5.09 1.526-10.48 3.92-16.18 7.171-5.7 3.257-10.98 7.935-15.87 14.04-4.88 6.102-8.9 13.785-12.05 23.041-3.16 9.259-4.73 20.703-4.73 34.333v77.21h37.23v-77.21c0-4.474.41-9.052 1.22-13.734.81-4.678 2.34-8.95 4.58-12.818 2.24-3.863 5.39-7.066 9.46-9.614 4.07-2.541 9.46-3.814 16.17-3.814 6.72 0 12.11 1.273 16.18 3.814 4.07 2.548 7.22 5.751 9.46 9.614 2.23 3.868 3.76 8.14 4.58 12.818.81 4.682 1.22 9.26 1.22 13.734v77.21h37.23v-77.21c0-13.63-1.58-25.074-4.73-34.333-3.16-9.256-7.17-16.939-12.05-23.041-4.89-6.105-10.18-10.783-15.87-14.04-5.7-3.251-11.1-5.645-16.18-7.171-5.09-1.527-9.51-2.39-13.27-2.594ZM75.319 329.45 4.639 218.175a29.566 29.566 0 0 1-.226-31.44l91.133-147.51A32.092 32.092 0 0 1 122.962 24l131.566.47c.296 0 .589.01.879.025 12.829.66 19.864 15.342 12.789 26.066l-91.307 138.363c-3.432 7.06-11.411 11.491-20.111 9.5-6.44-1.472-11.65-6.73-13.088-13.176-.987-4.425-.306-8.642 1.514-12.169a.047.047 0 0 0 .006-.015c.002-.006.003-.01.007-.015l.021-.034a18.145 18.145 0 0 1 1.912-2.925l13.903-21.254c4.119-6.128.281-14.44-7.057-15.283l-33.416-2.538a22.629 22.629 0 0 0-16.933 5.814c-6.049 7.076-32.912 50.41-45.175 70.723-3.958 6.556-3.481 14.743.956 20.984l-.153.074 42.552 66.825 7.983 12.679a20.51 20.51 0 0 1 2.165 3.442l.299.473-.021.107c1.566 3.408 2.226 7.319 1.649 11.426-1.213 8.606-8.09 15.736-16.664 17.168-9.567 1.6-18.163-3.46-21.92-11.28ZM311.115 61.837l71.175 110.96a29.562 29.562 0 0 1 .366 31.437L292.183 352.15a32.094 32.094 0 0 1-27.349 15.347l-131.566.119c-.296 0-.589-.006-.879-.021-12.831-.602-19.931-15.253-12.905-26.008l90.687-138.773c3.402-7.072 11.36-11.539 20.069-9.588 6.446 1.444 11.68 6.678 13.146 13.118 1.007 4.422.345 8.639-1.46 12.178l-.009.028-.025.033a17.537 17.537 0 0 1-1.899 2.935l-13.805 21.317c-4.092 6.147-.217 14.441 7.124 15.25l33.425 2.391a22.654 22.654 0 0 0 16.911-5.89c6.016-7.103 32.683-50.556 44.855-70.924 3.93-6.575 3.42-14.758-1.048-20.979l.153-.076-42.852-66.636-8.037-12.642a20.47 20.47 0 0 1-2.183-3.433l-.299-.47.021-.107c-1.582-3.402-2.257-7.31-1.698-11.42 1.17-8.612 8.016-15.77 16.584-17.241 9.561-1.643 18.179 3.377 21.971 11.179Z" clip-rule="evenodd"/></svg>
