<svg xmlns="http://www.w3.org/2000/svg" width="2.667em" height="1em" viewBox="0 0 192 72"><path d="M32.94 25.575a12.606 12.606 0 0 0-2.078-1.927 12.149 12.149 0 0 0-2.162-1.274 10.006 10.006 0 0 0-1.174-.442 13.5 13.5 0 0 0-1.9-.432h-8.35l-5.521 6.293v-6.162H.05v33.2h11.712V32.43h11l.914-.02v22.412h11.713V34.056a19.842 19.842 0 0 0-.512-4.727 9.223 9.223 0 0 0-1.937-3.754zM65.619 25.033a12.872 12.872 0 0 0-9.9-4.406 15.942 15.942 0 0 0-6.695 1.395 16.425 16.425 0 0 0-5.309 3.814 18.287 18.287 0 0 0-3.523 5.7 19.053 19.053 0 0 0-1.292 7.087 18.866 18.866 0 0 0 1.2 6.835 15.1 15.1 0 0 0 8.511 8.7 16.911 16.911 0 0 0 6.534 1.235 18.069 18.069 0 0 0 2.97-.231 11.735 11.735 0 0 0 2.59-.743A15.166 15.166 0 0 0 63.13 53.1a20.838 20.838 0 0 0 2.489-2.038v8.7h-.01v.838h-10.96l-8.24 9.274v1.6h30.922V21.541H65.619zm-.03 15.948a8.489 8.489 0 0 1-1.616 2.429 7.179 7.179 0 0 1-2.389 1.616 7.453 7.453 0 0 1-2.941.582 7.625 7.625 0 0 1-3.011-.582 7.206 7.206 0 0 1-2.4-1.616 7.8 7.8 0 0 1-1.586-2.429 7.656 7.656 0 0 1-.582-3.011 6.936 6.936 0 0 1 .612-2.91 7.53 7.53 0 0 1 1.658-2.36 8.361 8.361 0 0 1 2.389-1.616 6.948 6.948 0 0 1 2.91-.612 7.6 7.6 0 0 1 5.31 2.2A8.311 8.311 0 0 1 65.6 35.06a7.11 7.11 0 0 1 .612 2.981 7.329 7.329 0 0 1-.623 2.94zM111.777 21.541H99l-5.078 5.72v-5.72H82.2v33.2h11.742l.01-22.221h8.521L111.777 22zM142.5 25.324a19.523 19.523 0 0 0-6.343-3.683 23.112 23.112 0 0 0-7.929-1.325 22.785 22.785 0 0 0-7.989 1.355 19.861 19.861 0 0 0-6.313 3.714 16.969 16.969 0 0 0-4.145 5.57 16.149 16.149 0 0 0-1.486 6.9 17.911 17.911 0 0 0 1.486 7.407 17.017 17.017 0 0 0 4.115 5.721 18.194 18.194 0 0 0 6.242 3.693 23.336 23.336 0 0 0 7.9 1.3 24.413 24.413 0 0 0 8.06-1.3 18.519 18.519 0 0 0 6.373-3.663 17.2 17.2 0 0 0 4.175-5.631 16.863 16.863 0 0 0 1.526-7.216 17.341 17.341 0 0 0-1.486-7.216 16.848 16.848 0 0 0-4.186-5.626zm-7.317 15.718a8.475 8.475 0 0 1-1.616 2.429 7.177 7.177 0 0 1-2.388 1.615 7.735 7.735 0 0 1-5.892 0 7.077 7.077 0 0 1-2.388-1.615 8.275 8.275 0 0 1-1.616-2.429 7.455 7.455 0 0 1-.613-3.072 6.936 6.936 0 0 1 .613-2.91 8.348 8.348 0 0 1 1.616-2.389 7.047 7.047 0 0 1 2.388-1.616 7.747 7.747 0 0 1 5.892 0 6.951 6.951 0 0 1 2.388 1.616 8.275 8.275 0 0 1 1.616 2.429 7.142 7.142 0 0 1 .613 2.941 7.29 7.29 0 0 1-.614 3.001zM175.068 36.876l16.018-14.773v-.562H175.65l-12.285 11.973V1.026h-11.713v53.706h11.713v-13.52l12.877 13.52h15.808v-.633l-16.982-17.223z"/></svg>
