<svg xmlns="http://www.w3.org/2000/svg" fill="none" viewBox="0 0 120 34"><g fill="#442b75" class="logotext" clip-path="url(#a)"><path d="M32.049 26.345c-.04-.253-.06-.796-.06-1.63v-8.967c.299-.456.662-.82 1.09-1.092.438-.282.866-.422 1.284-.422 1.095 0 1.817.3 2.165.902l.06-.043.269-3.916c-.538-.223-1.274-.335-2.21-.335-.926 0-1.812.47-2.658 1.412v-.468c0-.653-.789-.653-.789-.653h-3.822c0 .22.953 0 .953 2.473v12.739h3.718Z" class="logo-letter"/><path fill-rule="evenodd" d="M38.529 15.704c-.398.97-.597 2.023-.597 3.159 0 2.251.83 4.1 2.493 5.546 1.652 1.436 3.743 2.154 6.27 2.154.459 0 .937-.03 1.434-.087 1.692-.195 2.917-.544 3.673-1.049l.164-2.27c.03-.427.055-.845.075-1.252-.15.126-.373.262-.672.407-1.135.554-2.493.83-4.076.83-1.513 0-2.742-.286-3.688-.859-.945-.582-1.548-1.392-1.806-2.43h5.255c3.056 0 5.082-.136 6.077-.408.12-.282.18-.805.18-1.572 0-2-.633-3.659-1.897-4.978-1.284-1.369-2.986-2.053-5.106-2.053-2.509 0-4.54.772-6.092 2.315a7.706 7.706 0 0 0-1.687 2.547Zm7.316-1.805c1.92 0 3.086 1.043 3.494 3.13-.26.019-.553.034-.881.043l-1.225.044c-.487.01-.985.015-1.493.015h-.85c-.34 0-.693-.005-1.06-.015h-1.106a71.07 71.07 0 0 1-.88-.03c.129-.465.313-.892.552-1.28.786-1.271 1.936-1.907 3.449-1.907Z" class="logo-letter" clip-rule="evenodd"/><path d="M54.475 11.133h4.016l2.777 10.932 2.986-10.932h3.434l3.09 11.165 2.778-11.165h3.613L72.57 26.345h-3.866l-2.957-9.971L63 26.344h-3.837l-4.688-15.21Z" class="logo-letter"/><g class="logo-letter"><path d="M83.007 26.345c-.04-.253-.06-.796-.06-1.63V11.132h-3.732v15.212h3.792ZM81.156 8.84c1.374 0 2.488-1.087 2.488-2.427s-1.114-2.427-2.488-2.427c-1.375 0-2.49 1.087-2.49 2.427s1.115 2.426 2.49 2.426Z"/></g><path d="M91.1 24.481c0 .854.04 1.475.119 1.863H87.47v-15.21H91.1v1.295c1.314-1.058 2.718-1.587 4.21-1.587 1.633 0 2.937.544 3.913 1.63.975 1.078 1.463 2.5 1.463 4.266v5.793c0 1.64.025 2.625.074 2.955.05.33.115.543.195.64.089.097.164.185.223.262l-.029.058a23.606 23.606 0 0 0-1.762-.102H98.34c-.319 0-.747.015-1.284.044v-7.933c0-2.843-.886-4.265-2.658-4.265-1.314 0-2.414.66-3.3 1.98v8.311Z" class="logo-letter"/><path fill-rule="evenodd" d="M111.972 26.563c1.264 0 2.529-.345 3.793-1.034.318.418.736.762 1.254 1.034l2.807-2.416a3.126 3.126 0 0 1-.597-.524c-.15-.185-.289-.476-.419-.874-.119-.398-.179-1.242-.179-2.533V4.656h-3.658v6.477a8.806 8.806 0 0 0-2.254-.29c-2.499 0-4.549.776-6.152 2.328-1.592 1.534-2.388 3.455-2.388 5.765 0 2.231.686 4.046 2.06 5.443a7.141 7.141 0 0 0 2.419 1.602c.945.388 2.05.582 3.314.582Zm3.001-3.814c-.696.31-1.463.466-2.299.466-1.603 0-2.832-.442-3.688-1.325-.796-.825-1.194-1.93-1.194-3.318 0-1.272.438-2.305 1.314-3.1a4.538 4.538 0 0 1 1.493-.889c.587-.213 1.289-.32 2.105-.32a6 6 0 0 1 2.269.422v8.064Z" class="logo-letter" clip-rule="evenodd"/></g><g fill="#442b75" class="boomerang" clip-path="url(#b)"><path d="M17.187 28.851s-6.314-7.14-8.09-11.523A30.178 30.178 0 0 1 6.884 6.263c-9.426 9.144-9.185 10.835.877 20.438 11.005 10.46 13.79 6.284 9.427 2.15Z"/><path d="M19.16 1.419c0-1.983-4.319-2.088-8.024.835-.701.543-2.455 2.255-2.455 2.255a29.8 29.8 0 0 0-.044 1.399c0 3.068.482 6.033 1.403 8.83A30.856 30.856 0 0 1 17.1 4.446c1.535-1.461 2.06-1.983 2.06-3.027Z"/></g><defs><clipPath id="a"><path fill="#fff" d="M0 0h120v33.277H0z"/></clipPath><clipPath id="b"><path fill="#fff" d="M0 0h19.16v33.277H0z"/></clipPath></defs></svg>
